<?xml version="1.0" standalone="no"?>
<!DOCTYPE svg PUBLIC "-//W3C//DTD SVG 20010904//EN"
 "http://www.w3.org/TR/2001/REC-SVG-20010904/DTD/svg10.dtd">
<svg version="1.0" xmlns="http://www.w3.org/2000/svg"
 width="640.000000pt" height="480.000000pt" viewBox="0 0 640.000000 480.000000"
 preserveAspectRatio="xMidYMid meet">

<g transform="translate(0.000000,480.000000) scale(0.100000,-0.100000)"
fill="#000000" stroke="none">
<path d="M0 2400 l0 -2400 3200 0 3200 0 0 2400 0 2400 -3200 0 -3200 0 0
-2400z m2591 567 c9 -7 21 -22 28 -34 17 -32 295 -759 311 -813 l13 -45 18 73
c10 40 21 77 24 82 4 6 54 10 112 10 80 0 104 -3 100 -12 -3 -7 -38 -96 -77
-198 -40 -102 -76 -188 -79 -192 -3 -4 -48 -8 -100 -9 -70 -1 -95 2 -102 12
-5 8 -60 142 -123 299 -63 157 -165 408 -225 559 -61 151 -111 276 -111 278 0
10 197 1 211 -10z m1084 -9 c116 -34 182 -84 222 -166 24 -49 28 -69 28 -142
0 -76 -4 -93 -32 -150 -38 -78 -69 -109 -153 -154 -57 -31 -61 -35 -43 -45 23
-11 331 -460 323 -469 -3 -3 -54 -5 -115 -4 l-110 1 -27 33 c-15 18 -77 110
-138 203 -61 94 -120 179 -131 190 -17 17 -34 20 -132 22 -61 2 -117 3 -122 3
-9 0 -55 116 -55 139 0 6 71 11 188 13 176 3 190 4 237 28 58 29 91 74 101
136 14 95 -37 180 -123 203 -22 6 -145 11 -290 11 l-251 0 -13 38 c-6 20 -20
59 -31 85 l-18 49 317 -5 c241 -3 330 -8 368 -19z"/>
</g>
</svg>
